<svg width="176" height="60" viewBox="0 0 176 60" fill="none" xmlns="http://www.w3.org/2000/svg">
<path fill-rule="evenodd" clip-rule="evenodd" d="M50.8168 32.9576C50.8168 46.9592 39.4663 58.3097 25.4647 58.3097V39.4726C22.5892 50.3172 12.7068 58.3097 0.95752 58.3097V7.60548C12.7068 7.60548 22.5892 15.5979 25.4647 26.4426V7.60547C39.4663 7.60547 50.8168 18.956 50.8168 32.9576Z" fill="#373737"/>
<path d="M75.1958 20.6028H73.5226V18H65.7142V8.70423H67.5733V16.5127H71.8494V8.70423H73.7085V16.5127H75.1958V20.6028ZM81.6001 18.1859C80.0508 18.1859 78.8609 17.7459 78.0305 16.8659C77.2001 15.9735 76.7848 14.7961 76.7848 13.3335C76.7848 11.9577 77.1877 10.8113 77.9933 9.89408C78.8113 8.9769 79.9392 8.51831 81.377 8.51831C82.8147 8.51831 83.8806 8.89014 84.5747 9.6338C85.2812 10.3775 85.6344 11.369 85.6344 12.6085L85.5601 13.6124H78.644C78.6936 14.5296 78.9724 15.2546 79.4806 15.7876C79.9888 16.3206 80.6953 16.587 81.6001 16.587C81.9967 16.587 82.3561 16.5499 82.6784 16.4755C83.013 16.3887 83.2671 16.2958 83.4406 16.1966C83.6265 16.0851 83.7815 15.9735 83.9054 15.862C84.0417 15.7504 84.1347 15.6575 84.1843 15.5831L84.2401 15.453H85.4485V16.6614V16.68C85.0023 17.2997 84.2648 17.7397 83.2361 18C82.7403 18.1239 82.195 18.1859 81.6001 18.1859ZM78.737 12.218H83.8124C83.8124 11.5859 83.6079 11.0777 83.1989 10.6935C82.7899 10.2969 82.1888 10.0986 81.3955 10.0986C79.9082 10.0986 79.022 10.8051 78.737 12.218ZM90.0858 18H88.2266V8.70423H90.0858V12.4225H94.5478V8.70423H96.4069V18H94.5478V14.0028H90.0858V18ZM103.34 18H101.48V10.2845H98.5057V8.70423H106.314V10.2845H103.34V18ZM110.274 22.6479H108.415V8.70423H110.088L110.256 10.173C110.999 9.06986 112.084 8.51831 113.509 8.51831C114.835 8.51831 115.889 8.9831 116.67 9.91268C117.463 10.8299 117.86 11.9701 117.86 13.3335C117.86 14.7093 117.463 15.862 116.67 16.7915C115.889 17.7211 114.835 18.1859 113.509 18.1859C112.109 18.1859 111.03 17.6406 110.274 16.5499V22.6479ZM113.137 16.6056C114.067 16.6056 114.773 16.302 115.257 15.6946C115.753 15.0749 116.001 14.2879 116.001 13.3335C116.001 12.3915 115.753 11.6169 115.257 11.0096C114.773 10.4023 114.067 10.0986 113.137 10.0986C112.27 10.0986 111.576 10.4085 111.055 11.0282C110.535 11.6479 110.274 12.4163 110.274 13.3335C110.274 14.2631 110.535 15.0439 111.055 15.6761C111.576 16.2958 112.27 16.6056 113.137 16.6056Z" fill="#373737"/>
<path d="M69.8596 38.4672C68.3475 38.4672 67.1824 38.0086 66.3644 37.0914C65.5463 36.1742 65.1373 35.0153 65.1373 33.6148C65.1373 32.2514 65.5649 31.1049 66.4201 30.1753C67.2754 29.2458 68.4218 28.781 69.8596 28.781C70.1694 28.781 70.4607 28.7996 70.7334 28.8367C71.0185 28.8739 71.2663 28.9297 71.477 29.0041C71.6877 29.066 71.8861 29.1404 72.072 29.2272C72.2579 29.3139 72.4128 29.4069 72.5368 29.506C72.6607 29.5928 72.7723 29.6858 72.8714 29.7849C72.983 29.8717 73.0697 29.9584 73.1317 30.0452C73.1937 30.132 73.2432 30.2125 73.2804 30.2869C73.33 30.3489 73.361 30.3984 73.3734 30.4356L73.4106 30.4914V31.6998H72.2021L72.1835 31.6627C72.1711 31.6255 72.1525 31.5821 72.1278 31.5325C72.103 31.4829 72.0658 31.4272 72.0162 31.3652C71.979 31.2908 71.9294 31.2165 71.8675 31.1421C71.8055 31.0677 71.7311 30.9934 71.6444 30.919C71.5576 30.8446 71.4523 30.7765 71.3283 30.7145C71.2168 30.6525 71.0866 30.5967 70.9379 30.5472C70.8016 30.4852 70.6404 30.4418 70.4545 30.417C70.2686 30.3798 70.0703 30.3612 69.8596 30.3612C68.93 30.3612 68.2173 30.6711 67.7216 31.2908C67.2382 31.8982 66.9965 32.6728 66.9965 33.6148C66.9965 34.5691 67.2382 35.3562 67.7216 35.9759C68.2173 36.5832 68.93 36.8869 69.8596 36.8869C70.2438 36.8869 70.5847 36.8435 70.8821 36.7567C71.192 36.6576 71.4275 36.546 71.5886 36.4221C71.7497 36.2982 71.8799 36.168 71.979 36.0317C72.0782 35.8829 72.1401 35.7714 72.1649 35.697C72.2021 35.6227 72.2207 35.5731 72.2207 35.5483H73.4292V36.7567C73.4416 36.7567 73.4106 36.8187 73.3362 36.9427C73.2742 37.0542 73.1627 37.1967 73.0016 37.3703C72.8404 37.5314 72.6297 37.6987 72.3694 37.8722C72.1216 38.0334 71.7745 38.1697 71.3283 38.2812C70.8821 38.4052 70.3925 38.4672 69.8596 38.4672ZM80.1808 38.4672C78.743 38.4672 77.5966 38.0024 76.7414 37.0728C75.8861 36.1432 75.4585 34.9905 75.4585 33.6148C75.4585 32.2514 75.8861 31.1111 76.7414 30.1939C77.5966 29.2643 78.743 28.7996 80.1808 28.7996C81.6061 28.7996 82.7464 29.2643 83.6016 30.1939C84.4692 31.1111 84.903 32.2514 84.903 33.6148C84.903 34.9905 84.4692 36.1432 83.6016 37.0728C82.7464 38.0024 81.6061 38.4672 80.1808 38.4672ZM78.0428 35.9759C78.5385 36.5832 79.2512 36.8869 80.1808 36.8869C81.1104 36.8869 81.8169 36.5832 82.3002 35.9759C82.796 35.3562 83.0439 34.5691 83.0439 33.6148C83.0439 32.6852 82.796 31.9167 82.3002 31.3094C81.8045 30.6897 81.098 30.3798 80.1808 30.3798C79.2636 30.3798 78.5571 30.6897 78.0614 31.3094C77.5656 31.9167 77.3177 32.6852 77.3177 33.6148C77.3177 34.5691 77.5594 35.3562 78.0428 35.9759ZM96.9271 40.8841H95.2539V38.2812H87.4454V28.9855H89.3046V36.7939H93.5807V28.9855H95.4398V36.7939H96.9271V40.8841ZM100.911 38.2812H99.2373V28.9855H101.096V35.5111L105.93 28.9855H107.603V38.2812H105.744V31.737L100.911 38.2812ZM113.193 38.4672C112.189 38.4672 111.415 38.1945 110.869 37.6491C110.324 37.1038 110.051 36.4159 110.051 35.5855C110.051 34.7551 110.361 34.0858 110.981 33.5776C111.6 33.0694 112.542 32.8153 113.807 32.8153C114.154 32.8153 114.501 32.8401 114.848 32.8897C115.207 32.9269 115.48 32.9641 115.666 33.0012L115.926 33.0756V32.4993C115.926 31.0863 115.257 30.3798 113.918 30.3798C113.46 30.3798 113.057 30.479 112.71 30.6773C112.363 30.8632 112.127 31.0491 112.003 31.2351L111.817 31.5139H110.609V30.3055L110.665 30.2311C110.702 30.1815 110.764 30.1134 110.851 30.0266C110.937 29.9274 111.037 29.8283 111.148 29.7291C111.272 29.6176 111.427 29.506 111.613 29.3945C111.799 29.2829 112.003 29.1838 112.226 29.097C112.449 29.0103 112.71 28.9421 113.007 28.8925C113.317 28.8305 113.639 28.7996 113.974 28.7996C115.213 28.7996 116.155 29.1156 116.8 29.7477C117.457 30.3798 117.785 31.3094 117.785 32.5365V38.2812H116.298L116.075 36.9427C115.815 37.2897 115.468 37.6243 115.034 37.9466C114.575 38.2936 113.962 38.4672 113.193 38.4672ZM113.491 36.9612C114.209 36.9612 114.792 36.7505 115.238 36.3291C115.697 35.9077 115.926 35.4553 115.926 34.972V34.4886C115.344 34.3151 114.637 34.2283 113.807 34.2283C113.125 34.2283 112.629 34.3584 112.319 34.6187C112.022 34.8666 111.873 35.1889 111.873 35.5855C111.873 36.5027 112.412 36.9612 113.491 36.9612ZM120.415 38.2812H119.727V36.6638H119.931C120.526 36.6266 120.948 36.4159 121.196 36.0317C121.444 35.6474 121.58 34.9782 121.605 34.0238L121.735 28.9855H128.279V38.2812H126.42V30.4728H123.371L123.259 34.2283C123.235 35.4677 122.987 36.4531 122.516 37.1843C122.057 37.9156 121.357 38.2812 120.415 38.2812ZM135.099 38.2812H131.399V28.9855H133.258V32.146H135.118C136.357 32.146 137.299 32.4249 137.943 32.9827C138.6 33.528 138.929 34.2469 138.929 35.1393C138.929 36.0689 138.6 36.8249 137.943 37.4074C137.299 37.99 136.351 38.2812 135.099 38.2812ZM133.258 33.6334V36.7939H134.969C136.307 36.7939 136.977 36.2486 136.977 35.1579C136.977 34.1415 136.307 33.6334 134.969 33.6334H133.258ZM143.071 38.2812H141.212V28.9855H143.071V32.7038H147.533V28.9855H149.392V38.2812H147.533V34.2841H143.071V38.2812ZM156.213 38.2812H152.514V28.9855H154.373V32.146H156.232C157.471 32.146 158.413 32.4249 159.058 32.9827C159.715 33.528 160.043 34.2469 160.043 35.1393C160.043 36.0689 159.715 36.8249 159.058 37.4074C158.413 37.99 157.465 38.2812 156.213 38.2812ZM163.297 38.2812H161.438V28.9855H163.297V38.2812ZM154.373 33.6334V36.7939H156.083C157.422 36.7939 158.091 36.2486 158.091 35.1579C158.091 34.1415 157.422 33.6334 156.083 33.6334H154.373ZM166.988 38.2812H165.779V37.0728L168.81 33.559L165.835 30.2869V28.9855H167.137L169.963 32.4063L172.77 28.9855H173.978V30.1939L170.985 33.5962L174.034 36.9798V38.2812H172.733L169.832 34.7674L166.988 38.2812Z" fill="#373737"/>
<path d="M69.5249 57.7188H67.6658V50.0033H64.6911V48.423H72.4996V50.0033H69.5249V57.7188ZM78.6039 57.9047C77.0546 57.9047 75.8647 57.4647 75.0343 56.5847C74.2039 55.6923 73.7886 54.5148 73.7886 53.0523C73.7886 51.6765 74.1915 50.53 74.9971 49.6128C75.8151 48.6957 76.943 48.2371 78.3808 48.2371C79.8185 48.2371 80.8844 48.6089 81.5785 49.3526C82.285 50.0962 82.6382 51.0878 82.6382 52.3272L82.5639 53.3311H75.6478C75.6974 54.2483 75.9762 54.9734 76.4844 55.5064C76.9926 56.0393 77.6991 56.3058 78.6039 56.3058C79.0005 56.3058 79.3599 56.2686 79.6822 56.1942C80.0168 56.1075 80.2709 56.0145 80.4444 55.9154C80.6303 55.8038 80.7853 55.6923 80.9092 55.5807C81.0455 55.4692 81.1385 55.3762 81.1881 55.3018L81.2439 55.1717H82.4523V56.3802V56.3987C82.0061 57.0185 81.2686 57.4585 80.2399 57.7188C79.7441 57.8427 79.1988 57.9047 78.6039 57.9047ZM75.7408 51.9368H80.8162C80.8162 51.3047 80.6117 50.7965 80.2027 50.4123C79.7937 50.0157 79.1926 49.8173 78.3993 49.8173C76.912 49.8173 76.0258 50.5238 75.7408 51.9368ZM85.7341 57.7188H84.5257V56.5103L87.5561 52.9965L84.5815 49.7244V48.423H85.8829L88.7088 51.8438L91.5161 48.423H92.7246V49.6314L89.7313 53.0337L92.7803 56.4173V57.7188H91.4789L88.5787 54.2049L85.7341 57.7188ZM97.1385 57.7188H95.2793V48.423H97.1385V52.1413H101.6V48.423H103.46V57.7188H101.6V53.7216H97.1385V57.7188ZM110.727 57.9047C109.289 57.9047 108.143 57.4399 107.287 56.5103C106.432 55.5807 106.005 54.428 106.005 53.0523C106.005 51.6889 106.432 50.5486 107.287 49.6314C108.143 48.7018 109.289 48.2371 110.727 48.2371C112.152 48.2371 113.292 48.7018 114.148 49.6314C115.015 50.5486 115.449 51.6889 115.449 53.0523C115.449 54.428 115.015 55.5807 114.148 56.5103C113.292 57.4399 112.152 57.9047 110.727 57.9047ZM108.589 55.4134C109.085 56.0207 109.797 56.3244 110.727 56.3244C111.656 56.3244 112.363 56.0207 112.846 55.4134C113.342 54.7937 113.59 54.0066 113.59 53.0523C113.59 52.1227 113.342 51.3542 112.846 50.7469C112.351 50.1272 111.644 49.8173 110.727 49.8173C109.81 49.8173 109.103 50.1272 108.607 50.7469C108.112 51.3542 107.864 52.1227 107.864 53.0523C107.864 54.0066 108.105 54.7937 108.589 55.4134ZM117.437 57.7188H116.749V56.1013H116.954C117.549 56.0641 117.97 55.8534 118.218 55.4692C118.466 55.0849 118.602 54.4157 118.627 53.4613L118.757 48.423H125.301V57.7188H123.442V49.9103H120.393L120.282 53.6658C120.257 54.9052 120.009 55.8906 119.538 56.6218C119.079 57.3531 118.379 57.7188 117.437 57.7188ZM132.568 57.9047C131.13 57.9047 129.983 57.4399 129.128 56.5103C128.273 55.5807 127.845 54.428 127.845 53.0523C127.845 51.6889 128.273 50.5486 129.128 49.6314C129.983 48.7018 131.13 48.2371 132.568 48.2371C133.993 48.2371 135.133 48.7018 135.988 49.6314C136.856 50.5486 137.29 51.6889 137.29 53.0523C137.29 54.428 136.856 55.5807 135.988 56.5103C135.133 57.4399 133.993 57.9047 132.568 57.9047ZM130.43 55.4134C130.925 56.0207 131.638 56.3244 132.568 56.3244C133.497 56.3244 134.204 56.0207 134.687 55.4134C135.183 54.7937 135.431 54.0066 135.431 53.0523C135.431 52.1227 135.183 51.3542 134.687 50.7469C134.191 50.1272 133.485 49.8173 132.568 49.8173C131.65 49.8173 130.944 50.1272 130.448 50.7469C129.952 51.3542 129.704 52.1227 129.704 53.0523C129.704 54.0066 129.946 54.7937 130.43 55.4134ZM141.691 57.7188H139.832V48.423H146.153V50.0033H141.691V57.7188ZM149.92 57.7188H148.247V48.423H150.106V54.9486L154.94 48.423H156.613V57.7188H154.754V51.1745L149.92 57.7188ZM165.271 46.8799C164.911 46.9914 164.502 47.0472 164.043 47.0472C163.585 47.0472 163.17 46.9914 162.798 46.8799C162.438 46.7559 162.16 46.6134 161.961 46.4523C161.775 46.2911 161.62 46.13 161.496 45.9689C161.373 45.8078 161.292 45.6714 161.255 45.5599L161.199 45.374V44.3328H162.593L162.612 44.4072C162.624 44.4444 162.643 44.5002 162.668 44.5745C162.693 44.6365 162.723 44.7109 162.761 44.7976C162.81 44.8844 162.872 44.9711 162.947 45.0579C163.033 45.1447 163.12 45.2252 163.207 45.2996C163.306 45.3616 163.424 45.4173 163.56 45.4669C163.709 45.5041 163.87 45.5227 164.043 45.5227C164.378 45.5227 164.663 45.4235 164.899 45.2252C165.147 45.0269 165.308 44.8286 165.382 44.6303L165.494 44.3328H166.888V45.374C166.876 45.4235 166.857 45.4855 166.832 45.5599C166.807 45.6342 166.727 45.7706 166.591 45.9689C166.454 46.1548 166.293 46.3221 166.107 46.4709C165.921 46.6196 165.642 46.7559 165.271 46.8799ZM161.403 57.7188H159.73V48.423H161.589V54.9486L166.423 48.423H168.096V57.7188H166.237V51.1745L161.403 57.7188Z" fill="#373737"/>
</svg>
